<svg id="Capa_1" enable-background="new 0 0 511.906 511.906" height="512" viewBox="0 0 511.906 511.906" width="512" xmlns="http://www.w3.org/2000/svg"><g id="XMLID_388_"><path id="XMLID_1288_" d="m85.766 303.783h30v59.738h-30z" fill="#cff3fc"/><path id="XMLID_1286_" d="m145.699 422.785h30v59.738h-30z" fill="#cff3fc"/><path id="XMLID_1285_" d="m306.263 397.779h30v59.738h-30z" fill="#a8ebfa"/><path id="XMLID_1283_" d="m394.141 301.259h30v59.738h-30z" fill="#a8ebfa"/><path id="XMLID_844_" d="m212.431 240.248 2.631 76.739-28.935.677 26.786 194.242 43.807-130.388 31.573 2.146 10.422-141.765z" fill="#ffe470"/><path id="XMLID_1993_" d="m256.72 241.096v140.422l31.573 2.146 10.422-141.765z" fill="#ffd400"/><path id="XMLID_1289_" d="m387.652 72.966c-6.981-30.117-34.032-52.631-66.241-52.631-2.233 0-4.468.109-6.689.327-19.39-13.539-41.985-20.662-65.746-20.662-34.836 0-67.635 15.825-89.63 42.8-3.836-.592-7.721-.89-11.626-.89-40.659 0-73.957 32.114-75.857 72.311-22.798 14.041-37.061 39.249-37.061 66.742 0 43.07 34.601 78.11 77.131 78.11h274.086c6.173 0 12.35-.755 18.364-2.244 20.294-4.534 38.719-15.952 51.901-32.169 13.427-16.517 20.821-37.355 20.821-58.676-.001-50.11-39.803-91.1-89.453-93.018z" fill="#f5f3f2"/><path id="XMLID_7_" d="m406.953 461.663c7.846 0 15.363-6.899 15-15-.364-8.127-6.591-15-15-15-7.846 0-15.363 6.899-15 15 .364 8.127 6.591 15 15 15z" fill="#00c0f1"/><path id="XMLID_8_" d="m90.953 457.663c7.846 0 15.363-6.899 15-15-.364-8.127-6.591-15-15-15-7.846 0-15.363 6.899-15 15 .364 8.127 6.591 15 15 15z" fill="#2ad8f6"/><path id="XMLID_9_" d="m350.953 361.663c7.846 0 15.363-6.899 15-15-.364-8.127-6.591-15-15-15-7.846 0-15.363 6.899-15 15 .364 8.127 6.591 15 15 15z" fill="#00c0f1"/><path id="XMLID_10_" d="m152.953 379.663c7.846 0 15.363-6.899 15-15-.364-8.127-6.591-15-15-15-7.846 0-15.363 6.899-15 15 .364 8.127 6.591 15 15 15z" fill="#2ad8f6"/><path id="XMLID_2008_" d="m387.652 72.966c-6.981-30.117-34.032-52.631-66.241-52.631-2.233 0-4.468.109-6.689.327-17.271-12.059-37.087-19.013-58.002-20.392v258.803h129.299c6.173 0 12.35-.755 18.364-2.244 20.294-4.534 38.719-15.952 51.901-32.169 13.427-16.517 20.821-37.355 20.821-58.676-.001-50.11-39.803-91.1-89.453-93.018z" fill="#f4e3df"/></g></svg>